<svg height="512" viewBox="0 0 135.46666 135.46666" width="512" xmlns="http://www.w3.org/2000/svg"><g fill="#545b62"><path d="m67.566309.00276674c-1.20278.040417-2.35129.512357-3.23555 1.33103706l-19.83929 18.3589962c-2.0321 1.881973-2.16417 5.082332-.29442 7.126588 1.8695 2.044576 5.06646 2.17955 7.10005.29913l16.43677-15.210163 16.43678 15.210163c2.03361 1.880432 5.23055 1.745458 7.10004-.29913 1.86889-2.045147 1.73629-5.24555-.29677-7.126588l-19.83693-18.3589962c-.96887-.89697906-2.25281-1.37483336-3.57068-1.33103706z"/><path d="m47.686889 107.02594c-1.28698.0542-2.55509.59903-3.48984 1.62132-1.86975 2.04426-1.73768 5.24462.29442 7.12659l19.83929 18.359c.88426.81868 2.03277 1.29062 3.23555 1.33104 1.31787.0438 2.60181-.43406 3.57068-1.33104l19.83693-18.359c2.03306-1.88103 2.16566-5.08144.29677-7.12659-1.86949-2.0446-5.06643-2.17956-7.10004-.29913l-16.43678 15.21016-16.43677-15.21016c-1.01679-.94021-2.32322-1.37647-3.61021-1.32219z"/><circle cx="67.733864" cy="67.733284" fill-rule="evenodd" r="18.267477"/></g></svg>