<svg version="1" xmlns="http://www.w3.org/2000/svg" width="933.333" height="933.333" viewBox="0 0 700.000000 700.000000"><path d="M164.4 73.8c-1 .2-2.6.6-3.4.9-.8.3-2 .7-2.7.9-4.2.8-10.5 7.4-13.4 13.9l-2.2 5v511l2.2 5.2c2.7 6.1 7.9 11.2 14.1 13.8 4.3 1.8 10.9 1.9 189.8 1.9 154.6.1 186.1-.1 190.3-1.3 6.6-1.8 13-7.6 15.9-14.3l2.3-5.3.1-177.5c.1-97.6 0-178.4-.2-179.6l-.4-2.1h-74.1c-40.8 0-75.8-.4-77.7-.8-9.8-2.1-17.8-10-19.7-19.4-.3-1.4-.6-36.3-.7-77.6l-.1-75H275.4c-59.9 0-109.9.1-111 .3zm282 243.2c5.2 2.6 6.9 6.1 7.2 14.4.1 5.8-.2 8.4-1.8 11.5-3.7 7.6 2.8 7.2-103 6.9-92.5-.3-94.4-.3-97-2.3-3.5-2.6-5.1-6.6-5.4-12.9-.5-10.8 2.9-17.1 9.7-18.5 1.8-.4 44.7-.6 95.3-.6 79.3 0 92.5.2 95 1.5zm.8 69.4c4.6 3 6.1 6.4 6.3 14.3.2 5.5-.2 8.3-1.7 11.2-3.7 7.5 2.6 7.1-102.4 7.1h-93.8l-3.2-2.2c-4.8-3.3-5.8-6-5.9-15.2 0-7.4.3-8.6 2.7-11.8 1.4-1.9 4.1-3.9 5.8-4.4 1.9-.5 42.7-.9 96.4-.8 87.2 0 93.3.1 95.8 1.8zm-.2 69.2c5.1 3 6.7 7 6.5 16.1-.2 8.8-1.3 11.4-6.3 14.5-3.4 2.1-3.9 2.1-97.2 2.1s-93.8 0-97.2-2.1c-4.8-3-6.1-5.7-6.3-13.6-.4-12.1 1.8-16 9.8-18 3-.8 32.6-1.1 95.9-1 88.5 0 91.6.1 94.8 2z"/><path d="M419.5 73.8c-.3.3-.5 31.4-.5 69.2v68.7h68.8c40.6 0 68.9-.3 69.3-.9 1.3-2.1-.2-12.1-2.7-17.3-1-2.1-24.2-26.2-57.4-59.4-42.2-42.1-56.9-56.3-60.4-58-4.3-2-15.8-3.5-17.1-2.3z"/></svg>