<svg xmlns="http://www.w3.org/2000/svg" width="786" height="197.266" clip-rule="evenodd" fill-rule="evenodd" stroke-linejoin="round" stroke-miterlimit="2"><path d="M248.07 58v79.68h9.297v-35.058h45.416v35.058h9.296V58h-9.296v36.123h-45.416V58zm187.351 0v33.518c-2.372-2.513-5.223-4.478-8.552-5.895-3.33-1.417-6.941-2.125-10.836-2.125-5.134 0-9.73 1.193-13.785 3.584-4.054 2.392-7.243 5.667-9.56 9.828-2.321 4.163-3.48 8.897-3.48 14.208 0 5.314 1.159 10.051 3.48 14.21 2.317 4.161 5.506 7.437 9.56 9.828 4.055 2.391 8.65 3.587 13.785 3.587 4.001 0 7.702-.753 11.102-2.258 3.4-1.506 6.285-3.568 8.659-6.19l.479 7.385h7.913V58zm157.87.106v79.68h21.673c15.653 0 27.676-3.488 36.068-10.466 8.392-6.974 12.59-16.803 12.59-29.48 0-12.642-4.198-22.425-12.59-29.348-8.392-6.923-20.415-10.386-36.068-10.386zm9.296 8.5h12.377c12.606 0 22.275 2.719 29.004 8.153 6.728 5.438 10.091 13.13 10.091 23.082 0 9.985-3.363 17.724-10.09 23.212-6.73 5.49-16.399 8.234-29.005 8.234h-12.377zm-118.295 16.89c-5.134 0-9.73 1.196-13.784 3.587-4.055 2.391-7.244 5.666-9.562 9.827-2.32 4.161-3.48 8.897-3.48 14.21 0 5.312 1.16 10.048 3.48 14.21 2.318 4.16 5.507 7.435 9.562 9.826 4.054 2.391 8.65 3.586 13.784 3.586 3.895 0 7.507-.709 10.837-2.125 3.328-1.416 6.179-3.38 8.551-5.895v2.76c0 7.225-1.815 13.005-5.444 17.345-3.632 4.336-9.216 6.505-16.759 6.505-2.975 0-5.737-.487-8.286-1.46-2.55-.975-4.818-2.329-6.8-4.063l-4.355 7.33c2.619 1.948 5.558 3.46 8.816 4.541 3.258 1.082 6.745 1.62 10.465 1.62 6.763 0 12.457-1.373 17.08-4.116 4.62-2.745 8.116-6.578 10.49-11.5 2.372-4.923 3.558-10.66 3.558-17.211V84.559h-7.915l-.479 7.385c-2.372-2.621-5.258-4.684-8.658-6.19-3.399-1.505-7.1-2.257-11.1-2.257zm281.895 0c-5.312 0-10.049 1.196-14.21 3.587-4.16 2.39-7.436 5.666-9.828 9.828-2.389 4.161-3.584 8.896-3.584 14.208 0 5.313 1.195 10.05 3.584 14.21 2.392 4.162 5.667 7.437 9.828 9.826 4.161 2.391 8.898 3.587 14.21 3.587 4.001 0 7.683-.69 11.048-2.072 3.364-1.382 6.286-3.311 8.765-5.79l-6.11-6.056c-1.665 1.842-3.665 3.293-6.001 4.355-2.338 1.063-4.905 1.595-7.702 1.595-3.577 0-6.765-.85-9.562-2.551-2.798-1.7-5.003-4.037-6.614-7.01-1.611-2.975-2.416-6.34-2.416-10.094 0-3.788.805-7.162 2.416-10.12 1.61-2.956 3.816-5.284 6.614-6.983 2.797-1.701 5.985-2.55 9.562-2.55 2.797 0 5.364.522 7.702 1.565a17.433 17.433 0 0 1 6.001 4.384l6.11-6.11c-2.479-2.442-5.4-4.355-8.765-5.736-3.365-1.382-7.047-2.072-11.048-2.072zm-413.42.002c-5.24 0-9.932 1.188-14.076 3.56-4.144 2.373-7.402 5.623-9.774 9.748-2.372 4.125-3.56 8.808-3.56 14.05 0 5.384 1.267 10.18 3.8 14.395 2.53 4.214 6.027 7.516 10.49 9.907 4.462 2.39 15.298 3.585 15.298 3.585 3.577 0 7.286-.602 11.13-1.807 3.841-1.204 7.692-3.416 11.552-6.64l-5.152-6.586c-2.622 2.479-5.525 4.276-8.71 5.392-3.19 1.114-6.216 1.673-9.086 1.673-5.17 0-9.588-1.514-13.253-4.54-3.665-3.03-5.94-6.9-6.825-11.61h45.045v-3.557c0-5.347-1.152-10.094-3.454-14.236-2.302-4.144-5.47-7.401-9.507-9.775-4.038-2.37-8.676-3.559-13.918-3.559zm200.366 0c-5.241 0-9.933 1.188-14.076 3.56-4.144 2.373-7.402 5.623-9.774 9.748-2.373 4.125-3.56 8.808-3.56 14.05 0 5.384 1.265 10.18 3.799 14.395 2.53 4.214 6.029 7.516 10.49 9.907 4.462 2.39 9.562 3.585 15.299 3.585 3.577 0 7.285-.602 11.128-1.807 3.842-1.204 7.693-3.416 11.554-6.64l-5.154-6.586c-2.62 2.479-5.523 4.276-8.71 5.392-3.187 1.114-6.215 1.673-9.084 1.673-5.17 0-9.588-1.514-13.253-4.54-3.665-3.03-5.94-6.9-6.826-11.61h45.045v-3.557c0-5.347-1.151-10.094-3.453-14.236-2.302-4.144-5.471-7.401-9.508-9.775-4.038-2.37-8.675-3.559-13.917-3.559zm148.248 0c-5.312 0-10.047 1.194-14.208 3.585-4.162 2.391-7.438 5.667-9.829 9.828-2.389 4.16-3.584 8.897-3.584 14.208 0 5.313 1.195 10.05 3.584 14.21 2.392 4.162 5.667 7.437 9.83 9.828 4.16 2.39 8.895 3.585 14.207 3.585 5.311 0 10.048-1.194 14.21-3.585 4.16-2.391 7.435-5.666 9.826-9.827 2.391-4.161 3.586-8.898 3.586-14.211 0-5.311-1.195-10.047-3.586-14.208-2.39-4.161-5.666-7.437-9.827-9.828-4.16-2.391-8.898-3.585-14.209-3.585zM485.09 91.464c3.576 0 6.764.85 9.56 2.552 2.799 1.699 5.004 4.029 6.614 6.983 1.612 2.958 2.417 6.332 2.417 10.12 0 3.754-.805 7.118-2.417 10.093-1.61 2.975-3.815 5.311-6.613 7.012-2.797 1.7-5.985 2.549-9.561 2.549-3.577 0-6.765-.85-9.562-2.549-2.798-1.7-5.002-4.037-6.612-7.012-1.613-2.975-2.418-6.339-2.418-10.093 0-3.788.805-7.162 2.418-10.12 1.61-2.954 3.814-5.284 6.612-6.983 2.797-1.701 5.985-2.552 9.562-2.552zm-68.26.001c3.578 0 6.766.85 9.562 2.55 2.798 1.7 5.002 4.029 6.614 6.985 1.61 2.957 2.416 6.331 2.416 10.118 0 3.754-.806 7.118-2.416 10.093-1.612 2.975-3.816 5.313-6.614 7.012-2.796 1.701-5.984 2.55-9.562 2.55-3.577 0-6.764-.849-9.56-2.55-2.798-1.7-5.003-4.037-6.614-7.012-1.611-2.975-2.417-6.339-2.417-10.093 0-3.787.806-7.16 2.417-10.118 1.61-2.956 3.816-5.285 6.614-6.986 2.796-1.699 5.983-2.549 9.56-2.549zm-64.114 0c4.638 0 8.57 1.46 11.792 4.384 3.222 2.922 5.222 6.7 6.002 11.34h-36.015c.78-4.567 2.834-8.33 6.163-11.288 3.328-2.956 7.348-4.435 12.058-4.435zm200.366 0c4.638 0 8.568 1.46 11.79 4.384 3.222 2.922 5.224 6.7 6.003 11.34H534.86c.779-4.567 2.833-8.33 6.162-11.288 3.328-2.956 7.348-4.435 12.059-4.435zm148.3 0c3.576 0 6.766.85 9.562 2.55 2.798 1.701 5.002 4.03 6.614 6.986 1.61 2.956 2.416 6.33 2.416 10.118 0 3.754-.806 7.119-2.416 10.094-1.612 2.974-3.816 5.31-6.614 7.011-2.796 1.7-5.986 2.55-9.562 2.55-3.577 0-6.764-.85-9.56-2.55-2.798-1.7-5.004-4.037-6.614-7.011-1.613-2.975-2.417-6.34-2.417-10.094 0-3.789.804-7.162 2.417-10.118 1.61-2.956 3.816-5.285 6.613-6.986 2.797-1.7 5.984-2.55 9.561-2.55z" fill-rule="nonzero" style="fill:#cfcac9;fill-opacity:1"/><path d="m187.345 108.66 9.992-9.992-9.992-9.992 7.517-11.963-11.964-7.518 4.667-13.337-13.336-4.667 1.581-14.04-14.04-1.583-1.583-14.042-14.04 1.582-4.668-13.337-13.336 4.666-7.52-11.963L108.66 9.99 98.67 0l-9.992 9.992-11.964-7.517-7.517 11.963L55.86 9.771l-4.667 13.337-14.041-1.583-1.582 14.041-14.04 1.582 1.581 14.04-13.338 4.668 4.667 13.337L2.475 76.71l7.518 11.966L0 98.668l9.992 9.993-7.517 11.964 11.964 7.517-4.667 13.337 13.338 4.668-1.582 14.039 14.04 1.583 1.583 14.04 14.041-1.581 4.667 13.335 13.336-4.665 7.518 11.964 11.963-7.518 9.992 9.899 9.992-9.896 11.964 7.517 7.517-11.966 13.338 4.668 4.666-13.337 14.042 1.581 1.581-14.041 14.042-1.582-1.583-14.04 13.338-4.668-4.667-13.338 11.964-7.517z" fill="#b51f08" fill-rule="nonzero"/><path d="M167.114 114.463c0-19.312-15.655-34.967-34.967-34.967-9.592 0-18.282 3.865-24.599 10.121l-.004-.004-8.909 8.91-7.285-7.285c-6.409-7.312-15.81-11.934-26.296-11.934-19.313 0-34.968 15.655-34.968 34.967 0 10.092 4.28 19.178 11.117 25.56l57.466 57.435 56.196-56.233c7.022-6.608 12.25-15.934 12.25-26.57" fill="#fdd49a" fill-rule="nonzero"/><path d="m98.635 98.522-7.285-7.284c-6.41-7.312-15.81-11.935-26.297-11.935-19.312 0-34.967 15.656-34.967 34.967 0 10.092 4.28 19.178 11.117 25.56l57.466 57.436" fill="url(#a)" fill-rule="nonzero"/><path d="m98.669 197.266-.034-98.744" fill="none"/><path d="M108.65 187.336a14.075 14.075 0 0 0-10.001-4.157 14.075 14.075 0 0 0-10.002 4.157c.04 5.49 4.502 9.927 10.001 9.927 5.5 0 9.962-4.439 10.003-9.927M86.967 126.87a7.643 7.643 0 1 1-15.287 0 7.643 7.643 0 1 1 15.287 0" fill="#010007" fill-rule="nonzero"/><path d="M84.345 125.724a2.116 2.116 0 0 1-2.118 2.117 2.117 2.117 0 1 1 0-4.236 2.12 2.12 0 0 1 2.118 2.12" fill="#fffffa" fill-rule="nonzero"/><path d="M125.732 126.87a7.644 7.644 0 1 1-15.288 0 7.644 7.644 0 1 1 15.288 0" fill="#010007" fill-rule="nonzero"/><path d="M123.11 125.724c0 1.172-.95 2.117-2.118 2.117a2.117 2.117 0 1 1 0-4.236 2.12 2.12 0 0 1 2.118 2.12" fill="#fffffa" fill-rule="nonzero"/><defs><linearGradient id="a" x1="0" y1="0" x2="1" y2="0" gradientUnits="userSpaceOnUse" gradientTransform="rotate(-64.537 160.23 25.078) scale(61.7694)"><stop offset="0" stop-color="#fdd49a"/><stop offset="1" stop-color="#dca055"/></linearGradient></defs></svg>