<!--
  - SPDX-FileCopyrightText: 2023 The HedgeDoc developers (see AUTHORS file)
  -
  - SPDX-License-Identifier: AGPL-3.0-only
  -->

<svg version="1" xmlns="http://www.w3.org/2000/svg" width="933.333" height="933.333" viewBox="0 0 700.000000 700.000000"><path d="M334 16c-8.5 8.7-16.5 16.6-17.8 17.5-2.5 1.8-.4 2.8-23.7-12-15.4-9.8-19.8-12.4-20.5-12-.4.3-6.3 9.4-13 20.2-6.8 10.9-12.6 20.2-13 20.6-.6.7-30.6-9.2-44.3-14.5-1.6-.6-3.1-.7-3.6-.2-.8.9-10.2 27.3-14.3 40.2l-2 6.2-4.4-.5c-7.5-.9-12.7-1.5-17.9-2.1-2.7-.3-6.6-.7-8.5-.9-1.9-.3-6.6-.8-10.5-1.1-3.8-.3-7.3-.8-7.7-1-.8-.5-1.5 3.1-2.3 11.1-.6 6-1.3 12.5-2 18-.2 1.6-.7 5.7-1 9-.9 8.2-1.3 10.6-2 11.3-.7.7-.9.7-10.5 1.6-4.1.4-8.8.9-10.5 1.2-1.6.2-4.8.6-7 .8-6.4.6-17.9 1.8-19.5 2.1-.8.2-1.4.7-1.4 1.1.1.5.5 4.5.8 8.9.4 4.4.9 8.7 1.1 9.5.2.8.6 4.4 1 7.9.3 3.6.8 7.9 1 9.5.2 1.7.7 5.2 1 7.9l.6 4.7-3.8 1.6c-2 .9-12.5 4.6-23.3 8.4-16.4 5.6-19.5 7-19.4 8.6.1 1 3.4 11.1 7.4 22.4 4 11.3 7.4 21.2 7.6 22 .4 1.1-5.7 5.3-20.1 14.4-11.3 7.1-20.7 13.2-21 13.5-.2.4 5.3 9.7 12.2 20.7 6.9 10.9 12.7 20.4 13 21.1.3.6-7.4 9.1-17.1 18.7L0 350l17.6 17.6c9.6 9.7 17.3 18.1 17.1 18.8-.3.6-6.2 10.1-13.1 21.1-9.7 15.4-12.3 20.2-11.3 21.1.6.6 10.1 6.6 21 13.4 14.4 9 19.7 12.8 19.4 13.9-.3.9-3.8 10.8-7.7 22.1-4 11.3-7.4 21.2-7.7 22.1-.5 1.7-.2 1.9 13.7 6.7 4.7 1.7 14 4.9 20.8 7.3l12.2 4.3-.5 4.6c-.3 2.5-.8 5.8-1 7.5-.2 1.6-.7 6.1-1 10-.3 3.8-.7 7.9-1 9-.3 1.6-1.7 14.6-1.7 16.5-.1 2.1.7 2.6 4 2.8 4.2.2 21.4 2.1 25.2 2.7 4 .7 17.4 1.9 18.3 1.7 1.2-.3 2.4 3.8 3.1 10.8.5 6.1.8 8.6 2.1 19.2.3 2.4.8 7.4 1.1 11.3.6 6.6 1.8 10 3.3 9.1.3-.2 3.3-.7 6.6-1 3.3-.4 7.6-.8 9.5-1.1 4.7-.6 11.2-1.3 18.5-2 3.3-.3 7.6-.8 9.6-1.1l3.6-.5 2.3 6.8c4.3 12.7 13.9 39.5 14.4 40 .2.2 10.7-3.2 23.2-7.6 12.5-4.5 23.1-8.1 23.5-8.1.4 0 2.1 2.4 3.8 5.2 8.3 14 23 36.3 23.9 36.1.5-.1 10-5.9 21-12.8s20.3-12.5 20.7-12.5c.4 0 8.4 7.5 17.7 16.7 9.3 9.3 17.3 16.8 17.8 16.8s8.6-7.6 17.9-16.9c9.5-9.3 17.7-16.6 18.3-16.3.7.3 10.3 6.1 21.3 13 15.3 9.6 20.3 12.3 21.1 11.4.6-.7 6.6-10.1 13.4-21 10.7-17.1 12.7-19.6 14.4-19.1 2.6.7 21.8 7.4 34.8 12 9.4 3.4 11.8 3.6 11.8 1.2 0-.6 3.5-10.9 7.7-22.9l7.7-21.9 4.6.5c2.5.3 6.1.8 8 1 1.9.3 6 .7 9 1 3 .3 7.3.8 9.5 1 2.2.3 6.9.8 10.5 1.1 3.6.3 6.9.7 7.4.7.8.2 1.1-1.2 2-10.3 1.3-13 1.7-16.7 2.1-18.8.2-1.3.7-5.3 1.1-9 .3-3.7.8-7.4.9-8.2.2-.8.4-1.8.4-2.2.1-.8 3.6-1.5 10.6-2.3 12.2-1.3 15.2-1.6 17.5-2 1.4-.2 5.2-.6 8.5-.9 9.2-.9 13.5-1.7 13.1-2.4-.2-.4-.7-4.3-1.1-8.7-.4-4.4-.8-8.2-1-8.5-.2-.3-.6-3.9-.9-8-.3-4.1-.8-8.6-1-10-.2-1.4-.7-5-1.1-8.1l-.6-5.6 10.8-3.7c5.9-2.1 16-5.6 22.3-7.8 6.3-2.2 12.1-4.2 12.9-4.4 1.6-.5 2 .9-6.9-24.4-4-11.3-7.4-21.2-7.7-22.1-.3-1.2 3.1-3.8 12.9-9.9 7.3-4.6 16.8-10.5 21-13.3l7.8-5-2.2-3.6c-1.2-2-7-11.3-13-20.7-5.9-9.5-10.8-17.5-10.8-17.8 0-.4 7.9-8.5 17.4-18.2l17.5-17.5-17.5-17.4c-9.5-9.6-17.4-17.7-17.4-18 0-.7 5-8.8 18-29.5 4.3-6.8 7.7-12.7 7.5-13.1-.3-.3-9.3-6.2-20.2-13-10.8-6.8-20.1-12.7-20.6-13-.5-.3 1.5-7.3 4.3-15.5 2.9-8.2 6.5-18.7 8.1-23.3 1.6-4.6 2.6-8.8 2.2-9.1-.7-.7-15.3-5.8-38.6-13.8l-7.7-2.6.4-3.5c.3-2 1-8.3 1.6-14.1.6-5.8 1.3-12.1 1.6-14 .4-2.7 1.4-13.1 1.6-16 .1-2.1-.8-2.7-4.9-2.9-2.6-.1-4.9-.4-5.2-.5-.3-.2-4.4-.7-9.1-1.1-4.7-.4-9.3-.9-10.4-1.1-1-.2-4.4-.6-7.5-.9-11.2-1.1-12.7-1.5-12.7-3.3-.1-2.8-1.6-17-2.9-26.7-.2-2.2-.8-6.9-1.1-10.5-.4-3.6-.8-7.2-1-8-.1-.8-.3-1.9-.3-2.3-.1-.5-.4-.6-.8-.4-.5.3-4.2.8-8.3 1.1-7.6.7-14.1 1.4-19.5 2.1-1.6.2-5.1.6-7.7.9-2.7.4-6.7.8-9.1 1.1l-4.3.5-1.8-5.2c-1-2.9-2.1-6.2-2.6-7.3-1.9-4.5-11-31.4-11-32.3 0-2.4-2.6-2.2-11.3.8-5.1 1.8-10.1 3.6-11.2 4-2.7 1.1-21.5 7.7-24.1 8.4-1.8.5-3.7-2.1-14.9-19.9-7.1-11.3-13.1-20.8-13.5-21-.4-.2-3.8 1.6-7.6 4-3.8 2.5-7.8 4.9-8.9 5.5-1.1.5-6.9 4.2-13 8.1-6 3.9-11.5 7.3-12.2 7.6-.6.2-9.1-7.4-18.7-17.1C357.9 7.9 349.9 0 349.8.1c-.2 0-7.3 7.2-15.8 15.9zm32.3 34.9l15.9 15.9 4.9-3.4c4.1-2.7 15.8-10.1 30-18.8 1.6-1 3.1-1.7 3.3-1.5.2.2 5.6 8.8 12 19.1l11.7 18.7 16.7-5.9c9.2-3.2 18.7-6.6 21.1-7.4 2.4-.9 4.5-1.5 4.7-1.3.3.3 10.9 30.3 13.6 38.3.8 2.6 1.9 4 2.8 3.9 1.9-.3 11-1.3 18-2 3-.3 6.4-.7 7.5-1 4.9-1 17.3-1.6 17.8-.9.2.5.8 4 1.2 7.9.3 3.8.8 7.9 1 9 .2 1.1.7 4.7 1 8 1.9 19.9 1.7 19.1 6.3 19.3 2.2.2 4.8.4 5.8.6 1.1.2 4.8.7 8.4 1 3.6.4 8.3 1 10.5 1.3 5.8.8 8.6 1.1 12.4 1.2l3.4.1-.7 7.2c-.3 4-.8 8.4-1 9.8-.2 1.4-.7 5.2-1.1 8.5-.3 3.3-.9 8-1.2 10.5-1.2 9.7-1.7 9 7.7 12.3 13.1 4.5 33.5 11.9 33.7 12.1.1.1-1.1 4-2.8 8.7-1.7 4.6-4.8 13.3-6.9 19.4-2.1 6-4.1 11.7-4.4 12.6-.5 1.1.8 2.6 4.8 5.2 3.1 2 5.8 3.7 6 3.7.3 0 25.1 15.6 26.5 16.6.1.1-1.3 2.9-3.4 6.1-2 3.2-4.2 6.7-4.8 7.7-.7 1-4.4 7-8.4 13.3l-7.1 11.3 16 15.9 16.1 16-16.1 16-16 16 9 14.3c5 7.9 10.3 16.3 11.9 18.7 1.6 2.5 2.9 4.7 2.9 5 0 .3-2.8 2.3-6.3 4.4-3.4 2.1-7.1 4.3-8.2 5-1 .7-5.2 3.3-9.3 5.9-4 2.7-7.7 4.8-8 4.8-1.6.1-6.4 4.9-5.8 5.8.6 1 10.9 29.9 13 36.8l1.3 4.1-21.1 7.5c-18 6.3-21.1 7.7-21 9.4.2 1.8 2.1 19.2 2.9 25.9.2 1.6.6 6.2 1 10l.7 7-15.8 1.8c-8.8 1-18.4 2-21.4 2.3-3 .3-6 1.1-6.7 1.7-.6.7-1.5 4.3-1.9 8.2-.3 3.8-.8 8.1-.9 9.5-.2 1.4-.7 5.6-1.1 9.5-.4 3.8-.8 7.7-1 8.5-.1.8-.3 3-.3 4.8l-.1 3.4-7.2-.7c-10-1-11.5-1.2-17.8-1.9-19.1-2.3-19.8-2.3-21-.2-.5 1.2-1.4 3.4-1.9 5.1-1.5 4.9-12.1 34.8-12.5 35.3-.3.2-1.9-.3-3.8-1.1-1.8-.8-5.3-2.2-7.8-3-6.3-2.1-27.2-9.4-29.1-10.2-1.3-.5-4.2 3.5-13.5 18.2-6.5 10.3-11.9 19-12 19.2-.4.4-27.3-16.2-27.3-16.9-.1-.3 35.3-36.1 78.7-79.5 43.3-43.5 80.6-81.5 83-84.6 12.6-16.7 21.8-37.7 24.8-56.9 2.3-15.1.2-37.2-5.1-53.2-11.5-34.8-40.4-63.4-75.5-74.7-8.1-2.6-9.3-2.9-20.3-4.5-20.4-2.9-42.7 0-61.7 8.1-17.9 7.7-25.3 13.2-49.2 37.1L350 349.4l-20.2-20c-24.4-24-32.9-30.1-52.6-37.3-7.3-2.7-18-5.4-26.7-6.6-4.6-.7-23.7-.7-27.5-.1-1.4.3-5.4 1-9 1.6-21.3 3.7-43.4 15.5-60 31.9-22.6 22.4-34.4 50.2-34.9 82-.4 21.2 5.1 42.6 15.3 59.9 1.7 2.9 3.6 6.1 4.1 7.1 3.6 6.3 20.1 23.3 89.9 93.1 61.8 61.6 78.3 78.7 77.4 79.6-.7.6-6.9 4.7-13.7 8.9-9.4 5.8-12.6 7.4-13.2 6.4-.4-.8-5.7-9.3-11.8-18.9-8.4-13.4-11.4-17.4-12.8-17.2-1.6.3-35 11.9-39.4 13.7-1.1.4-1.8 0-2.2-1.2-.3-1-1.7-5.2-3.2-9.3-1.5-4.1-2.8-8.1-3.1-8.8-.2-.7-.4-1.4-.5-1.7-2.2-7-8-21-8.6-20.8-.5.1-4.2.4-8.3.7-6.8.5-12.8 1.2-18.7 2.1-1.2.2-5.5.6-9.6 1-5.8.5-7.4.4-7.4-.7 0-.7-.3-3.3-.6-5.8-.4-2.5-.9-7-1.2-10-.3-3-.8-6.9-1-8.5-.2-1.7-.7-6.5-1.1-10.8-.3-4.2-.9-7.9-1.3-8.1-.3-.2-3.3-.7-6.6-1-12-1.2-17-1.7-19.3-2.1-4.5-.8-16.7-1.9-17.6-1.7-.7.3 0-15.3.9-16.8.1-.3.6-3.9.9-8 .9-10.4 1.8-17.4 2.2-18 .9-1.7-3.1-3.6-21.6-10-11.2-3.9-20.5-7.2-20.7-7.3-.1-.2 1.4-4.8 3.3-10.2 2-5.5 5.3-15.1 7.4-21.3l3.8-11.3-2.1-1.3c-1.2-.8-4.2-2.7-6.7-4.2-2.5-1.6-5-3.1-5.6-3.4-.8-.4-21.8-13.6-23.3-14.7-.2-.1 5-8.8 11.6-19.3l12-19.1-16-16-16-16.1 16.1-16 16-15.9-12-19c-6.7-10.4-11.9-19.1-11.7-19.3.2-.2 6.2-4 13.4-8.4 7.2-4.5 13.5-8.5 14-8.9.6-.5 3.2-2.1 5.8-3.7 3.7-2.1 4.7-3.2 4.2-4.4-.4-1-3.3-9.1-6.5-18.2s-6.3-17.8-6.9-19.4c-.6-1.6-1-3-.8-3.2.2-.2 9.3-3.5 20.3-7.4 10.9-3.9 20.4-7.2 20.9-7.4.7-.3.3-7-1.2-20.2-1.2-11-2.2-21.1-2.3-22.5 0-2.9-1-2.6 18-4.5 3-.3 6.6-.7 8-1 1.4-.2 6-.7 10.3-1 6.8-.6 7.8-.9 8.2-2.8.4-2.1 1.4-10.6 2.1-17.6.1-1.9.5-5.3.8-7.5.7-4.8 1.9-15.5 1.9-17.2 0-.7.3-1.1.6-.9.3.2 4 .7 8.1 1.1 4.1.3 8.2.8 9 1 .8.2 4.9.7 9 1 4.1.4 9.8 1.1 12.5 1.5 2.8.5 5.3.5 5.7.2.3-.4 2.9-7.2 5.6-15.2 4.9-14.2 9.2-26.2 9.7-26.8.1-.2 2 .4 4.1 1.2 2.2.8 10.9 4 19.4 7 8.5 3 16.2 5.7 17.1 6.1 1.3.5 4.2-3.4 13.4-18.2 6.5-10.3 11.9-19 12.1-19.2.4-.5 11.6 6.3 24.7 15 3.2 2.2 6.1 3.9 6.5 3.9.4 0 1.8.9 3.2 2 1.4 1.1 3 2 3.6 2 .6 0 8.1-7 16.5-15.5C342.6 42 349.7 35 350 35c.3 0 7.6 7.2 16.3 15.9zm-70.4 371c19.1 9.8 19.3 36.3.2 46.1-20.6 10.4-43.3-10.4-35.1-32.3 5.1-13.5 22.1-20.3 34.9-13.8zm126.9-1.4c10.8 3.2 18.6 14 18.1 25.3-.3 6.9-2.2 11.5-6.9 16.5-11.4 12.4-30.3 10.9-39.7-3.2-4.4-6.5-5.2-11.2-3.7-20.5 1.2-7.4 8-14.8 16.1-17.5 6.6-2.2 9.9-2.4 16.1-.6zm-61.4 216c7.6 2 10.9 3.6 17.1 8.3 4.8 3.6 5 4 4.7 8.1-.7 9.8-9.2 21.5-18.9 26.1-16.2 7.6-36.3.7-44.5-15.4-2-3.9-2.2-4.6-3.2-10.8-.6-3.7.8-5.5 8-10.5 9.7-6.7 24.4-9 36.8-5.8z"/><path d="M290.1 435.7c-5 4.3-2.1 12.3 4.4 12.3 4.3 0 7.8-4 6.9-7.9-.8-3.3-3.9-6.1-6.9-6.1-1.3 0-3.2.8-4.4 1.7zM420.5 436.5c-2.8 2.7-3 4.2-1.3 8 3.4 7.5 15.3 2.1 12.6-5.7-1.8-5-7.5-6.2-11.3-2.3z"/></svg>
