<svg clip-rule="evenodd" fill-rule="evenodd" height="1486" stroke-linejoin="round" stroke-miterlimit="2"
     viewBox="0 0 1486 1486" width="1486" xmlns="http://www.w3.org/2000/svg">
    <linearGradient id="a" gradientTransform="matrix(200 -420 420 200 660 1340)" gradientUnits="userSpaceOnUse" x1="0"
                    x2="1" y1="0" y2="0">
        <stop offset="0" stop-color="#fcca8c"/>
        <stop offset="1" stop-color="#dca055"/>
    </linearGradient>
    <g fill-rule="nonzero" transform="translate(-142.756 -142.754)">
        <path d="m1553.66 961.083 75.25-75.258-75.25-75.246 56.61-90.096-90.1-56.616 35.15-100.446-100.44-35.142 11.91-105.746-105.74-11.912-11.92-105.75-105.74 11.912-35.15-100.445-100.43 35.145-56.63-90.1-90.107 56.617-75.242-75.246-75.242 75.25-90.104-56.612-56.612 90.096-100.442-35.15-35.142 100.441-105.75-11.916-11.912 105.741-105.742 11.913 11.917 105.741-100.454 35.15 35.145 100.438-90.1 56.612 56.621 90.117-75.258 75.25 75.25 75.258-56.613 90.107 90.1 56.61-35.145 100.44 100.45 35.15-11.913 105.73 105.742 11.92 11.912 105.74 105.75-11.91 35.142 100.43 100.437-35.13 56.617 90.1 90.096-56.62 75.25 74.55 75.25-74.53 90.099 56.61 56.61-90.11 100.45 35.15 35.14-100.44 105.75 11.91 11.91-105.75 105.75-11.91-11.92-105.74 100.45-35.15-35.15-100.45 90.1-56.61z"
              fill="#b51f08"/>
        <path d="m1401.3 1004.78c0-145.437-117.9-263.341-263.34-263.341-72.24 0-137.68 29.112-185.252 76.225l-.033-.034-67.096 67.1-54.862-54.862c-48.267-55.067-119.071-89.879-198.042-89.879-145.442 0-263.342 117.904-263.342 263.341 0 76 32.23 144.43 83.721 192.49l432.779 432.55 423.217-423.49c52.88-49.77 92.25-120 92.25-200.1"
              fill="#fcca8c"/>
        <path d="m885.579 884.73-54.862-54.862c-48.267-55.067-119.071-89.879-198.042-89.879-145.442 0-263.342 117.904-263.342 263.341 0 76 32.23 144.43 83.721 192.49l432.779 432.55"
              fill="url(#a)"/>
    </g>
    <path d="m743.077 1485.616-.254-743.64" fill="none"/>
    <g fill-rule="nonzero" transform="translate(-142.756 -142.754)">
        <path d="m961.011 1553.59c-19.279-19.35-45.917-31.31-75.325-31.31-29.417 0-56.046 11.96-75.329 31.31.308 41.34 33.908 74.76 75.325 74.76 41.416 0 75.02-33.43 75.329-74.76"
              fill="#010007"/>
        <path d="m797.707 1098.22c0 31.8-25.767 57.57-57.571 57.57-31.787 0-57.558-25.77-57.558-57.57s25.771-57.57 57.558-57.57c31.804 0 57.571 25.77 57.571 57.57"
              fill="#010007"/>
        <path d="m777.962 1089.59c0 8.82-7.146 15.94-15.95 15.94-8.808 0-15.958-7.12-15.958-15.94 0-8.81 7.15-15.96 15.958-15.96 8.804 0 15.95 7.15 15.95 15.96"
              fill="#fffffa"/>
        <path d="m1089.65 1098.22c0 31.8-25.77 57.57-57.57 57.57-31.79 0-57.567-25.77-57.567-57.57s25.777-57.57 57.567-57.57c31.8 0 57.57 25.77 57.57 57.57"
              fill="#010007"/>
        <path d="m1069.9 1089.59c0 8.82-7.15 15.94-15.95 15.94-8.81 0-15.96-7.12-15.96-15.94 0-8.81 7.15-15.96 15.96-15.96 8.8 0 15.95 7.15 15.95 15.96"
              fill="#fffffa"/>
    </g>
</svg>
