<svg width="1650" height="1780" xmlns="http://www.w3.org/2000/svg">
    <path d="M880 128c-62 0-112 50-112 112v656h-32V368c0-62-50-112-112-112s-112 50-112 112v784L358 947c-24-32-62-51-102-51-71 0-128 58-128 128 0 28 9 55 26 77l384 512c24 32 62 51 102 51h688c46 0 86-33 95-78l76-405c3-19 5-39 5-59V624c0-62-50-112-112-112s-112 50-112 112v272h-32V368c0-62-50-112-112-112s-112 50-112 112v528h-32V240c0-62-50-112-112-112zm0-128c90 0 173 51 214 132 14-3 28-4 42-4 132 0 240 108 240 240v17c139-8 256 99 256 239v498c0 28-3 56-8 83l-76 404c-19 106-112 183-220 183H640c-80 0-157-39-205-102L51 1178c-33-44-51-99-51-154 0-141 114-256 256-256 42 0 93 10 128 34V368c0-132 108-240 240-240 14 0 28 1 42 4C707 51 790 0 880 0z"/>
</svg>
