<svg width="2050" height="1680" xmlns="http://www.w3.org/2000/svg">
    <path d="M896 1212c0-132-32-284-164-284-40 40-95 64-156 64s-116-24-156-64c-132 0-164 152-164 284 0 73 48 132 107 132h426c59 0 107-59 107-132zM768 768c0-106-86-192-192-192s-192 86-192 192 86 192 192 192 192-86 192-192zm1024 480v-64c0-18-14-32-32-32h-704c-18 0-32 14-32 32v64c0 18 14 32 32 32h704c18 0 32-14 32-32zm-384-256v-64c0-18-14-32-32-32h-320c-18 0-32 14-32 32v64c0 18 14 32 32 32h320c18 0 32-14 32-32zm384 0v-64c0-18-14-32-32-32h-192c-18 0-32 14-32 32v64c0 18 14 32 32 32h192c18 0 32-14 32-32zm0-256v-64c0-18-14-32-32-32h-704c-18 0-32 14-32 32v64c0 18 14 32 32 32h704c18 0 32-14 32-32zM128 384h1792v-96c0-18-14-32-32-32H160c-18 0-32 14-32 32v96zm1920-96v1216c0 88-72 160-160 160H160c-88 0-160-72-160-160V288c0-88 72-160 160-160h1728c88 0 160 72 160 160z"/>
</svg>
