<svg width="1900" height="1700" xmlns="http://www.w3.org/2000/svg">
    <path d="M1280 704c0-35-29-64-64-64-354 0-582 148-813 403-12 13-19 27-19 45 0 35 29 64 64 64 18 0 32-7 45-19 49-44 93-92 141-137 181-163 336-228 582-228 35 0 64-29 64-64zm512-198c0 64-7 129-20 193-64 311-264 513-542 651-135 68-286 108-438 108-96 0-195-16-286-47-48-16-144-79-184-79-50 0-110 204-197 204-63 0-82-31-109-77-9-17-16-23-16-44 0-104 198-185 198-243 0-9-26-62-30-82-6-34-9-69-9-104 0-318 253-545 537-639 205-68 641 11 780-121 55-51 82-98 166-98 113 0 150 293 150 378z"/>
</svg>
