<svg width="1750" height="1750" xmlns="http://www.w3.org/2000/svg">
    <path d="M896 828v580c0 139-117 256-256 256s-256-117-256-256c0-35 29-64 64-64s64 29 64 64c0 67 61 128 128 128s128-61 128-128V828c21-7 42-11 64-11s43 4 64 11zm768 27c0 17-15 32-32 32-9 0-16-4-23-10-58-54-112-92-195-92-95 0-177 59-231 134-12 17-21 35-32 52-7 11-15 17-28 17-14 0-22-6-29-17-11-17-20-35-32-52-54-75-135-134-230-134s-176 59-230 134c-12 17-21 35-32 52-7 11-15 17-29 17-13 0-21-6-28-17-11-17-20-35-32-52-54-75-136-134-231-134-83 0-137 38-195 92-7 6-14 10-23 10-17 0-32-15-32-32 0-3 0-5 1-7 92-378 457-592 831-592 372 0 741 214 831 592 1 2 1 4 1 7zM896 128v98c-21-1-43-2-64-2s-43 1-64 2v-98c0-35 29-64 64-64s64 29 64 64z"/>
</svg>
