<!--
SPDX-FileCopyrightText: 2021 The HedgeDoc developers (see AUTHORS file)

SPDX-License-Identifier: CC0-1.0
-->
<svg version="1.1" viewBox="0 0 16 16" xmlns="http://www.w3.org/2000/svg" width="16" height="16">
    <g transform="matrix(.11811 0 0 .11811 29.639 105.22)" fill="currentColor">
        <path d="m-185.61-890.87c-1.2028 0.0405-2.3513 0.51236-3.2355 1.331l-19.839 18.359c-2.0321 1.882-2.1642 5.0823-0.29441 7.1266 1.8695 2.0446 5.0664 2.1796 7.1 0.29914l16.437-15.21 16.437 15.21c2.0336 1.8804 5.2306 1.7454 7.1-0.29914 1.8689-2.0451 1.7363-5.2456-0.29677-7.1266l-19.837-18.359c-0.96887-0.89698-2.2528-1.3748-3.5707-1.331z"/>
        <path d="m-205.49-783.84c-1.287 0.0542-2.5551 0.59901-3.4898 1.6213-1.8698 2.0443-1.7377 5.2446 0.29441 7.1266l19.839 18.359c0.88425 0.81868 2.0328 1.2906 3.2355 1.331 1.3179 0.0439 2.6018-0.43406 3.5707-1.331l19.837-18.359c2.0331-1.881 2.1657-5.0814 0.29677-7.1266-1.8695-2.0446-5.0664-2.1796-7.1-0.29913l-16.437 15.21-16.437-15.21c-1.0168-0.94021-2.3232-1.3765-3.6102-1.3222z"/>
        <path d="m-185.49-841.4a18.267 18.267 0 0 0-18.216 18.268 18.267 18.267 0 0 0 0.23777 2.9358l22.524-20.642a18.267 18.267 0 0 0-4.494-0.56168 18.267 18.267 0 0 0-0.0519 0zm18.082 15.333-22.523 20.641a18.267 18.267 0 0 0 4.4934 0.56168 18.267 18.267 0 0 0 18.268-18.268 18.267 18.267 0 0 0-0.23777-2.9347z"
              fill-rule="evenodd"/>
        <path d="m-124.79-883.92-126.15 116.29 4.9507 5.4008 126.15-116.29z"/>
    </g>
</svg>
