<!--
SPDX-FileCopyrightText: 2021 The HedgeDoc developers (see AUTHORS file)

SPDX-License-Identifier: CC0-1.0
-->
<svg version="1.1" viewBox="0 0 16 16" xmlns="http://www.w3.org/2000/svg" width="16" height="16">
    <g transform="scale(.11811)" fill="currentColor">
        <path d="m67.566 0.0027667c-1.2028 0.040417-2.3513 0.51236-3.2356 1.331l-19.839 18.359c-2.0321 1.882-2.1642 5.0823-0.29442 7.1266 1.8695 2.0446 5.0665 2.1796 7.1 0.29913l16.437-15.21 16.437 15.21c2.0336 1.8804 5.2306 1.7455 7.1-0.29913 1.8689-2.0451 1.7363-5.2456-0.29677-7.1266l-19.837-18.359c-0.96887-0.89698-2.2528-1.3748-3.5707-1.331z"/>
        <path d="m47.687 107.03c-1.287 0.0542-2.5551 0.59903-3.4898 1.6213-1.8698 2.0443-1.7377 5.2446 0.29442 7.1266l19.839 18.359c0.88426 0.81868 2.0328 1.2906 3.2356 1.331 1.3179 0.0438 2.6018-0.43406 3.5707-1.331l19.837-18.359c2.0331-1.881 2.1657-5.0814 0.29677-7.1266-1.8695-2.0446-5.0664-2.1796-7.1-0.29913l-16.437 15.21-16.437-15.21c-1.0168-0.94021-2.3232-1.3765-3.6102-1.3222z"/>
        <circle cx="67.734" cy="67.733" r="18.267" fill-rule="evenodd"/>
    </g>
</svg>
