<svg height="512" viewBox="0 0 135.46666 135.46666" width="512" xmlns="http://www.w3.org/2000/svg"><g fill="#fff" transform="translate(253.17277 890.86874)"><path d="m-185.60701-890.86598c-1.20278.0405-2.35129.51236-3.23554 1.33104l-19.83931 18.35901c-2.0321 1.88196-2.16416 5.08233-.29441 7.12658 1.86949 2.04457 5.06645 2.17956 7.10004.29914l16.43678-15.21017 16.43678 15.21017c2.03361 1.88043 5.23055 1.74545 7.10004-.29914 1.86889-2.04514 1.73629-5.24555-.29677-7.12658l-19.83694-18.35901c-.96887-.89698-2.25281-1.37483-3.57067-1.33104z"/><path d="m-205.48644-783.84278c-1.28698.0542-2.55509.59901-3.48983 1.62131-1.86975 2.04426-1.73769 5.24463.29441 7.12659l19.83931 18.359c.88425.81868 2.03276 1.29062 3.23554 1.33104 1.31786.0439 2.6018-.43406 3.57067-1.33104l19.83694-18.359c2.03306-1.88102 2.16566-5.08144.29677-7.12659-1.86949-2.04459-5.06643-2.17956-7.10004-.29913l-16.43678 15.21017-16.43678-15.21017c-1.01679-.94021-2.32321-1.37647-3.61021-1.32218z"/><path d="m-185.49136-841.40292a18.267478 18.267478 0 0 0 -18.21562 18.26754 18.267478 18.267478 0 0 0 .23777 2.93583l22.52379-20.64169a18.267478 18.267478 0 0 0 -4.49402-.56168 18.267478 18.267478 0 0 0 -.0519 0zm18.08169 15.33288-22.5232 20.64052a18.267478 18.267478 0 0 0 4.49343.56168 18.267478 18.267478 0 0 0 18.26754-18.26754 18.267478 18.267478 0 0 0 -.23777-2.93466z" fill-rule="evenodd"/><path d="m-124.79368-883.92129-126.14511 116.28534 4.95067 5.40084 126.14688-116.28534z"/></g></svg>